<svg xmlns="http://www.w3.org/2000/svg" version="1.1" xmlns:xlink="http://www.w3.org/1999/xlink" xmlns:svgjs="http://svgjs.com/svgjs" width="500" height="500"><svg xmlns="http://www.w3.org/2000/svg" viewBox="0 0 500 500"><defs><style>.cls-1{fill:none;}</style></defs><g id="SvgjsG1000" data-name="Layer 1"><path class="cls-1" d="M133.62,311.08c-.74,2.26-1.42,4.35-2.08,6.43a.71.71,0,0,0,.1.51c.46.7.94,1.38,1.41,2.06,1-2.38,1.93-4.65,2.91-7Z"></path><path class="cls-1" d="M137.76,316.24l-.29-.06c-.64,2-1.29,4-1.91,6a.74.74,0,0,0,.26.59c.48.4,1,.76,1.55,1.16.57-1.39,1.11-2.69,1.63-4a.61.61,0,0,0,0-.42C138.57,318.41,138.17,317.33,137.76,316.24Z"></path><path class="cls-1" d="M144.85,318.28c-.08-.16-.17-.37-.31-.43-1.23-.54-2.47-1-3.82-1.61a27.05,27.05,0,0,0,6.26,10.4c.14.15.35.34.52.33.95,0,1.91-.09,3-.15-.16-.26-.21-.37-.28-.46A30.05,30.05,0,0,1,144.85,318.28Z"></path><path class="cls-1" d="M131.56,308.85c-.8-1.09-1.62-2.15-2.56-3.38a18.14,18.14,0,0,0,.65,8.2c.68-1.5,1.31-2.87,1.92-4.25A.7.7,0,0,0,131.56,308.85Z"></path><path class="cls-1" d="M139.92,325.37l2.83,1,.13-.14L140.7,323C140.42,323.89,140.18,324.59,139.92,325.37Z"></path><path class="cls-1" d="M175.57,192.25c-1.89-.79-4.74.31-6.6.75a149.84,149.84,0,0,0-28.28,10.25c-9.21,4.24-18.31,8.79-27.34,13.4A264.87,264.87,0,0,0,86.55,232a25.69,25.69,0,0,0-5,4.06,8.54,8.54,0,0,0-1.71,2.79c-.43,1.26,0,1.78,1.24,2a38.3,38.3,0,0,0,7.42.13q3.84-.14,7.65-.59c19.76-2.36,38.09-11.22,53.93-23a146.6,146.6,0,0,0,21.39-19.12q2.44-2.7,4.65-5.58A1.36,1.36,0,0,0,175.57,192.25Z"></path><path class="cls-1" d="M130.3,238.63q-6,4-11.81,8.38c-.56.42-1.13.84-1.69,1.28a4.29,4.29,0,0,0-.72.57l-.23.26a.13.13,0,0,1,.17,0c.28.26,1.37.24,1.73.28.6.06,1.21.08,1.81.08a21.87,21.87,0,0,0,7.06-1.38A49.49,49.49,0,0,0,139,241a129.69,129.69,0,0,0,11.64-9.82c3.52-3.29,7-6.68,10.27-10.27-1.65.82-3.3,1.64-4.93,2.49A274.58,274.58,0,0,0,130.3,238.63Z"></path><path class="cls-1" d="M151.75,319.45c-1.1-.17-2.2-.31-3.41-.47a4.27,4.27,0,0,0,.35.71c1.18,1.61,2.3,3.27,3.59,4.79,1.5,1.78,1.63,1.73,3.7.54-1.3-1.8-2.55-3.54-3.81-5.27A.82.82,0,0,0,151.75,319.45Z"></path><path class="cls-1" d="M141.52,298c.38.49.84.92,1.39,1.5a30.68,30.68,0,0,1,4.3-10.12l-.16-.23a3.17,3.17,0,0,0-.75.47,25.83,25.83,0,0,0-4.82,7.66A.86.86,0,0,0,141.52,298Z"></path><path class="cls-1" d="M145.59,301.79c.68.53,1.41,1,2.26,1.59a29.94,29.94,0,0,1,3.72-13.61l-.22-.33c-.36.15-.85.2-1,.47a25.76,25.76,0,0,0-4.84,11.24A.79.79,0,0,0,145.59,301.79Z"></path><path class="cls-1" d="M142.21,290.13l-.11-.18-4.68,2.16,1.81,3.11Z"></path><path class="cls-1" d="M158.25,292.64l.09-.2-3.93-2.08-1.49,2.87Z"></path><path class="cls-1" d="M134.43,272.79c2.71.54,5.85-.81,8.29-1.72a70.7,70.7,0,0,0,7.47-3.27c-2,.23-3.94.51-5.89.88C140.81,269.35,137.1,270.37,134.43,272.79Z"></path><path class="cls-1" d="M151.71,296.72c-.28,1-.48,1.95-.72,2.95,2.09-.59,4-1.26,6-1.66s4-.56,6.36-.86c-.77-.62-1.34-1.47-2-1.54a25.35,25.35,0,0,0-9,.69C152.1,296.36,151.76,296.53,151.71,296.72Z"></path><path class="cls-1" d="M136,257.23c4.24.06,8.35-1.67,12.06-3.6q3.21-1.66,6.33-3.54-2.73.48-5.41,1.15C144.46,252.36,139.28,253.81,136,257.23Z"></path><path class="cls-1" d="M131.37,298.59c-.32.62-.57,1.21-.89,1.74a1.93,1.93,0,0,0,.08,2.19A27.77,27.77,0,0,0,164.74,315a3.81,3.81,0,0,0,.87-.61C150.6,316.67,139.28,311.48,131.37,298.59Z"></path><path class="cls-1" d="M135.17,294c-.37.34-.72.71-1.11,1a1.29,1.29,0,0,0-.31,1.86,27.8,27.8,0,0,0,31.79,14.34c.67-.18,1-.47.86-1.26C152.66,311.12,142.31,305.78,135.17,294Z"></path><path class="cls-1" d="M158.57,323.52a17.33,17.33,0,0,0,4.81-5l-8,1.24Z"></path><path class="cls-1" d="M166.52,307c-.08-.75-.15-1.42-.23-2.16a25,25,0,0,0-9.2,2A23.91,23.91,0,0,0,166.52,307Z"></path><path class="cls-1" d="M150.58,304.14c0,.76.48.85,1,1.1a1.87,1.87,0,0,0,2-.05,11.83,11.83,0,0,1,1.57-.73,31.23,31.23,0,0,1,10.3-2.41c-.27-1.77-.45-1.94-2.1-1.94a29,29,0,0,0-11.91,2.56C150.7,303,150.62,303.45,150.58,304.14Z"></path><path d="M185.33,214.29c-3.26-3.88-9.12-2.69-13.16-1-1.13.47-2.26,1-3.38,1.46a59.46,59.46,0,0,0,7.39-12.85,38.71,38.71,0,0,0,2.14-6.89,6.08,6.08,0,0,0,.11-1.84c.82-1.1,1.61-2.21,2.37-3.34a56.86,56.86,0,0,0,3.73-6.29,12.8,12.8,0,0,0,1.64-6.26c-.28-4.91-5-6.56-9.27-6.68-10.41-.29-20.86,3.39-30.09,7.9-9.9,4.84-19.09,11-28,17.48-9.29,6.73-18.41,13.7-27.45,20.76q-6.66,5.19-13.23,10.48c-1.07.87.45,2.37,1.51,1.51Q92.16,218.65,105,208.94c8.23-6.24,16.48-12.49,25.09-18.21,8.33-5.53,17.1-10.69,26.53-14.13A63.68,63.68,0,0,1,171.16,173a35.67,35.67,0,0,1,6.85-.24c2,.16,4.31.71,5.42,2.52s.53,4.09-.2,5.91a36.43,36.43,0,0,1-3.29,6c-.8,1.26-1.65,2.49-2.52,3.7a3.5,3.5,0,0,0-1.29-.74c-2.07-.66-4.4,0-6.44.47-2.71.6-5.38,1.31-8,2.11-10.33,3.14-20.17,7.64-29.86,12.35-10.1,4.92-20.22,9.85-30.07,15.26-4.89,2.69-9.71,5.51-14.4,8.55-3.66,2.37-8.42,5.14-9.65,9.67-1.52,5.57,7,4.6,10.16,4.52a93,93,0,0,0,16.38-1.91,109.86,109.86,0,0,0,30.06-11.15,151.19,151.19,0,0,0,25.5-17.67,126.56,126.56,0,0,0,15.95-15.79c-.17.63-.36,1.25-.56,1.88a49.62,49.62,0,0,1-5.85,11.78,75.43,75.43,0,0,1-4.73,6.4c-7.24,3.4-14.31,7.24-21.19,11.26a269.66,269.66,0,0,0-26.67,17.76c-1.24.94-4.47,2.89-2.7,4.8.7.77,2,.86,2.91,1a18.74,18.74,0,0,0,4,.11c5-.43,9.75-2.59,14-5.23,9-5.61,16.94-13,24.32-20.61,2.25-2.3,4.45-4.7,6.52-7.19,1.22-.58,2.44-1.18,3.67-1.74,3.85-1.75,9.36-4.71,13.42-1.87s.61,8.87-1.37,11.81a58.66,58.66,0,0,1-9.65,10.39,115.26,115.26,0,0,1-13.13,10.16q-3.59.42-7.11,1.14c-6.64,1.38-14.56,3.29-18.72,9.14a1.07,1.07,0,0,0,.63,1.57c5.3.77,10.32-1,15-3.38a109.33,109.33,0,0,0,11-6.42,84.46,84.46,0,0,1,8.71-.52,7.63,7.63,0,0,1,3.67.48c.58.32.48.58.08,1.11s-.94,1.15-1.43,1.71a62,62,0,0,1-5.51,5.6,67.56,67.56,0,0,1-10.2,7.52c-2.79.2-5.58.5-8.35.92-5.21.78-11.21,2-14.71,6.33a1.09,1.09,0,0,0,.22,1.68c2.91,1.47,6.13.73,9.08-.25a75.39,75.39,0,0,0,9-3.66q2.79-1.36,5.46-3c1.48-.09,3-.16,4.44-.2a65.51,65.51,0,0,1,8.05.09c.57.05,1.24.07,1.29.77,0,.46-.48,1.05-.76,1.39a24.46,24.46,0,0,1-2.2,2.35,35.46,35.46,0,0,1-9.11,6.27l-1.52.08a41,41,0,0,0-5.19.58A38.51,38.51,0,0,0,140.2,282a1.08,1.08,0,0,0,.54,2,42,42,0,0,0,16.92-3.89,3.58,3.58,0,0,1,1.28.08c.34.11.36-.05.29.22s-.39.42-.51.54a21.88,21.88,0,0,1-2.77,2.4,24.45,24.45,0,0,1-6.17,3.2,22.59,22.59,0,0,0-4.35,0,21.59,21.59,0,0,0-18.41,28c2.68,8.3,8.6,13.12,17.21,15,0,0,7.18.75,12.58-1.82,7.67-3.84,12-10.05,12.49-18.62a21.45,21.45,0,0,0-15.74-21.88,26,26,0,0,0,4.59-2.91c1.41-1.13,5.1-4.24,2.51-5.77A36.65,36.65,0,0,0,168.1,273c1.42-1.4,3.83-3.53,3.26-5.79-.66-2.64-4.48-2.19-6.52-2.23s-3.81,0-5.72.07a70,70,0,0,0,6.84-5.28,64.45,64.45,0,0,0,6.56-6.66c.87-1,2.17-2.25,1.91-3.73a3,3,0,0,0-2.11-2.16,11,11,0,0,0-4.12-.49c-1.71,0-3.42.07-5.13.19a113.23,113.23,0,0,0,11.07-8.94c3.73-3.42,7.48-7.07,10.07-11.46C186.26,223,188.3,217.84,185.33,214.29Zm-35.25,3.09c-15.84,11.77-34.17,20.63-53.93,23q-3.81.45-7.65.59a38.3,38.3,0,0,1-7.42-.13c-1.23-.22-1.67-.74-1.24-2A8.54,8.54,0,0,1,81.55,236a25.69,25.69,0,0,1,5-4.06,264.87,264.87,0,0,1,26.8-15.33c9-4.61,18.13-9.16,27.34-13.4A149.84,149.84,0,0,1,169,193c1.86-.44,4.71-1.54,6.6-.75a1.36,1.36,0,0,1,.55.43q-2.2,2.88-4.65,5.58A146.6,146.6,0,0,1,150.08,217.38Zm.59,13.78A129.69,129.69,0,0,1,139,241a49.49,49.49,0,0,1-12.41,7.14,21.87,21.87,0,0,1-7.06,1.38c-.6,0-1.21,0-1.81-.08-.36,0-1.45,0-1.73-.28a.13.13,0,0,0-.17,0l.23-.26a4.29,4.29,0,0,1,.72-.57c.56-.44,1.13-.86,1.69-1.28q5.79-4.35,11.81-8.38A274.58,274.58,0,0,1,156,223.38c1.63-.85,3.28-1.67,4.93-2.49C157.68,224.48,154.19,227.87,150.67,231.16Zm-.37,58.75c.2-.27.69-.32,1-.47l.22.33a29.94,29.94,0,0,0-3.72,13.61c-.85-.59-1.58-1.06-2.26-1.59a.79.79,0,0,1-.13-.64A25.76,25.76,0,0,1,150.3,289.91Zm-4-.25a3.17,3.17,0,0,1,.75-.47l.16.23a30.68,30.68,0,0,0-4.3,10.12c-.55-.58-1-1-1.39-1.5a.86.86,0,0,1,0-.72A25.83,25.83,0,0,1,146.3,289.66Zm-4.2.29.11.18-3,5.09-1.81-3.11ZM129,305.47c.94,1.23,1.76,2.29,2.56,3.38a.7.7,0,0,1,0,.57c-.61,1.38-1.24,2.75-1.92,4.25A18.14,18.14,0,0,1,129,305.47ZM131.64,318a.71.71,0,0,1-.1-.51c.66-2.08,1.34-4.17,2.08-6.43l2.34,2c-1,2.34-1.92,4.61-2.91,7C132.58,319.4,132.1,318.72,131.64,318Zm7.36,1.91c-.52,1.32-1.06,2.62-1.63,4-.54-.4-1.07-.76-1.55-1.16a.74.74,0,0,1-.26-.59c.62-2,1.27-4,1.91-6l.29.06c.41,1.09.81,2.17,1.21,3.27A.61.61,0,0,1,139,319.93Zm3.75,6.43-2.83-1c.26-.78.5-1.48.78-2.33l2.18,3.18Zm4.75.61c-.17,0-.38-.18-.52-.33a27.05,27.05,0,0,1-6.26-10.4c1.35.57,2.59,1.07,3.82,1.61.14.06.23.27.31.43a30.05,30.05,0,0,0,5.35,8.08c.07.09.12.2.28.46C149.41,326.88,148.45,327,147.5,327Zm4.78-2.49c-1.29-1.52-2.41-3.18-3.59-4.79a4.27,4.27,0,0,1-.35-.71c1.21.16,2.31.3,3.41.47a.82.82,0,0,1,.42.3c1.26,1.73,2.51,3.47,3.81,5.27C153.91,326.21,153.78,326.26,152.28,324.48Zm6.29-1-3.15-3.73,8-1.24A17.33,17.33,0,0,1,158.57,323.52Zm6.17-8.54a27.77,27.77,0,0,1-34.18-12.46,1.93,1.93,0,0,1-.08-2.19c.32-.53.57-1.12.89-1.74,7.91,12.89,19.23,18.08,34.24,15.78A3.81,3.81,0,0,1,164.74,315Zm.8-3.77a27.8,27.8,0,0,1-31.79-14.34,1.29,1.29,0,0,1,.31-1.86c.39-.32.74-.69,1.11-1,7.14,11.8,17.49,17.14,31.23,16C166.57,310.74,166.21,311,165.54,311.21Zm1-4.23a23.91,23.91,0,0,1-9.43-.19,25,25,0,0,1,9.2-2C166.37,305.56,166.44,306.23,166.52,307Zm-1.07-4.93a31.23,31.23,0,0,0-10.3,2.41,11.83,11.83,0,0,0-1.57.73,1.87,1.87,0,0,1-2,.05c-.48-.25-1-.34-1-1.1s.12-1.14.86-1.47a29,29,0,0,1,11.91-2.56C165,300.11,165.18,300.28,165.45,302.05Zm-4.1-6.44c.65.07,1.22.92,2,1.54-2.37.3-4.39.45-6.36.86s-3.9,1.07-6,1.66c.24-1,.44-2,.72-2.95,0-.19.39-.36.63-.42A25.35,25.35,0,0,1,161.35,295.61Zm-3-3.17-.09.2-5.33.59,1.49-2.87Zm-15.62-21.37c-2.44.91-5.58,2.26-8.29,1.72,2.67-2.42,6.38-3.44,9.87-4.11,1.95-.37,3.92-.65,5.89-.88A70.7,70.7,0,0,1,142.72,271.07ZM148,253.63c-3.71,1.93-7.82,3.66-12.06,3.6,3.33-3.42,8.51-4.87,13-6q2.69-.68,5.41-1.15Q151.22,252,148,253.63Z"></path><path d="M225.08,242.8l-6.73,26.56H209.6l-11.08-38.68h9.22l6.79,27.95,7.36-27.95h6.44l7.31,27.95,6.72-27.95h9.28l-11,38.68h-8.75Z"></path><path d="M337.21,241.52l-10.9,27.84h-3.6l-10.9-27.84v27.84h-8.24V230.68h11.54l9.4,24.13,9.39-24.13h11.6v38.68h-8.29Z"></path><path d="M377.83,262.69H360.55l-2.44,6.67h-9l15-38.68h10.32l14.91,38.68h-9Zm-15.08-7.13h12.82l-6.38-17.75Z"></path><path d="M401.11,243.38v26h-8.23V230.68h8.46l17.92,25v-25h8.24v38.68h-7.95Z"></path><path d="M365.17,288.37c1.89-.65,3.09.1,4.09,2.19a4.73,4.73,0,0,1-1.05,5.84,16.21,16.21,0,0,1-6.93,4c.2,4.09,1.59,6.94,3.49,7.14,2.05.2,4.79-3.65,6.29-6.74.3-.6.75-.65,1,0a3.79,3.79,0,0,1-.59,3c-1.2,2.1-3.5,5.29-7.44,5.24-3.49-.05-6.44-2.89-6.34-9.63,0-.9.1-1,1.05-1.34,6.19-2.05,9.48-6.39,8.73-7.69-.54-.9-2.74-.35-5.39,1.7-3.74,2.84-6,7.23-9.82,16.41-.15.4-.55.5-.9.1-.75-.84-1-2.44-.05-5.48,1.4-4.55,9.68-21,14.12-27,.45-.6.95-.65,1.25-.05.74,1.5.65,3.49-1.45,7.14-1.2,2-3.15,5.54-4.49,8A12.08,12.08,0,0,1,365.17,288.37Z"></path><path d="M385.23,289c1.65.26,3.19,2.7,1.95,5.29-1.05,2.2-3.5,5.89-4.65,8.49-1.29,2.89-1,5.24.8,5.14,2.05-.1,4.49-3.4,6.39-6.89.25-.45.6-.45.85-.05.35.55.25,1.7-.45,3.14-1.35,2.8-4.49,5.34-7.39,5.34-4.24,0-5.24-3.09-3.79-7.43,1.65-4.89,6-10.18,5.14-10.58-.5-.2-3.39,1.2-6.59,4.69-2.94,3.19-5.13,8-7.28,12.67-.2.45-.5.65-.95.2-1-1-1.3-2.64-.5-5.14,1-3.14,4.84-10.07,8-14.72.35-.54.74-.49,1,0a5.93,5.93,0,0,1,.15,4.75C380.19,291.46,383.58,288.72,385.23,289Z"></path><path d="M389.22,302a61.81,61.81,0,0,1,6.39-12.13c.45-.59.8-.75,1.2-.3.75.8,1.14,2.95-.05,5.44-1.05,2.2-3.15,5.59-4.19,8.09-1.2,2.89-1.1,4.84.5,4.74,2.24-.1,5-3.4,6.48-6.84.25-.45.6-.4.8,0a3.54,3.54,0,0,1-.35,3.09c-1.5,3.1-4.64,5.19-7.43,5.19C388.77,309.27,387.83,306.08,389.22,302Zm11.13-13c-.65.7-2.05.55-2.79-.74a3.12,3.12,0,0,1,.24-3.7c.8-.84,2.25-.24,2.9,1.1A3,3,0,0,1,400.35,289Z"></path><path d="M402.15,287.82c-.5-.7-.2-1.05.55-1a28.43,28.43,0,0,0,4.14-.2,63.43,63.43,0,0,1,3.79-6.19c.45-.65.95-.6,1.2,0,.54,1.4.54,3.05-.65,5.64a3.12,3.12,0,0,1,3.09,1.5c.35.6.15.95-.6.95a14.84,14.84,0,0,0-3.89.2c-1.95,3.34-4.79,8.18-6.69,12.37-1.64,3.64-1.09,6.74,1,6.84,2.25.1,5.09-3.45,6.94-7.19.3-.6.85-.7,1.05,0a4.15,4.15,0,0,1-.5,2.84c-.65,1.45-3.94,5.84-7.94,5.69-3.29-.1-5.93-3.79-3.54-9.53,1-2.49,3.14-6.68,5.29-10.63A4.1,4.1,0,0,1,402.15,287.82Z"></path><path d="M417.52,291.76a5.38,5.38,0,0,1,1.79-3.84c1.1-1,2.25-1.2,2.7-.75s.25,1.05-.4,2.19c-.2.3-.35.6-.55.95-.35,4.59.6,8.49.45,11.93-.1,1.94-.45,4-2.25,5.24,3.34-1.25,5.44-4.24,6.69-6.94.25-.55.75-.4.95,0a4.5,4.5,0,0,1-.7,3.29,10.51,10.51,0,0,1-8.83,5.49c-2.9.1-5.69-.65-7.39-3.74-1.2-2.24-1.05-5.54.65-6.93.6-.5,1-.3,1.05.49.05.4.05.8.1,1.2A101,101,0,0,0,417.52,291.76ZM412.23,303c.74,2.89,2.19,4.94,3.84,4.44,2.29-.7,1.54-8.54,1.35-12.53A89.71,89.71,0,0,1,412.23,303Z"></path><path d="M250.43,217c.31.4.62.79.92,1.2l23.32,31.23q7.62,10.18,15.26,20.34c2.56,3.4,5.27,6.7,8,10,2.09,2.52,4.17,5.06,6.25,7.58a6.91,6.91,0,0,0,.76.77c-1.63-2.42-3.3-4.82-4.91-7.26q-5.11-7.77-10.67-15.23-14.13-19-28.3-38-4.31-5.76-8.62-11.5a1.18,1.18,0,0,1-.27-1.3,2.51,2.51,0,0,0-3.59-2.85,2.3,2.3,0,0,0-1.36,2.51s0,.08,0,.12c.51,1.57,1.17,2.05,2.89,2.07C250.34,216.67,250.37,216.82,250.43,217Z"></path><path d="M301.68,217c-.3.4-.62.79-.92,1.2l-23.32,31.23q-7.62,10.18-15.25,20.34c-2.57,3.4-5.28,6.7-8,10-2.09,2.52-4.17,5.06-6.25,7.58a6.91,6.91,0,0,1-.76.77c1.64-2.42,3.3-4.82,4.91-7.26q5.11-7.77,10.67-15.23,14.13-19,28.31-38,4.29-5.76,8.61-11.5a1.18,1.18,0,0,0,.27-1.3,2.51,2.51,0,0,1,3.59-2.85,2.3,2.3,0,0,1,1.36,2.51s0,.08,0,.12c-.51,1.57-1.17,2.05-2.89,2.07C301.77,216.67,301.74,216.82,301.68,217Z"></path></g></svg><style>@media (prefers-color-scheme: light) { :root { filter: none; } }
</style></svg>